<svg id="Capa_1" data-name="Capa 1" xmlns="http://www.w3.org/2000/svg" viewBox="0 0 21.86 23.12"><defs><style>.cls-1{fill:#fff;}.cls-2{fill:#ffc107;}.cls-3{fill:#2e5cc1;}</style></defs><rect class="cls-1" x="0.03" width="21.82" height="23.12" rx="1.97"/><path class="cls-2" d="M19.58,13.7a5.09,5.09,0,0,1-.79-.84,3.47,3.47,0,0,1-.42-.84,4.12,4.12,0,0,1-.13-.5,5.64,5.64,0,0,1,.33-2,6.44,6.44,0,0,0,.07-1.41,8.2,8.2,0,0,0-.45-2.53,6.06,6.06,0,0,0-2-2.84,5.89,5.89,0,0,0-1.82-1,7.85,7.85,0,0,0-2.75-.44,17.5,17.5,0,0,0-2.85.39h0A10.44,10.44,0,0,0,4.28,4.33a9.16,9.16,0,0,0-1.6,2.53,6,6,0,0,0-.32,1.06,6.11,6.11,0,0,0,.23,3.31,23.09,23.09,0,0,0,2,3.41l.11.21s.16.32.29.65a7.3,7.3,0,0,1,.49,2.36C5.54,20,3.7,23.15,3.7,23.15L13,24.46a7.2,7.2,0,0,1-.26-1.35,4.44,4.44,0,0,1,0-1.15,2.45,2.45,0,0,1,.91-1.74.87.87,0,0,1,.19-.1A3,3,0,0,1,15.56,20s1.48.26,1.7.09l.07-.05.06,0a2.12,2.12,0,0,0,.73-1.16c0-.36-.15-.6,0-.95s.39-.39.37-.59-.21-.28-.37-.35q0-.16.06-.3a.79.79,0,0,0,.28-.23c.1-.13.22-.28.18-.38a2,2,0,0,1-.2-.25,3.21,3.21,0,0,1,.29-.61,4.76,4.76,0,0,1,.85-.83S19.76,14,19.58,13.7Z"/><path class="cls-3" d="M6.89,10.75A1.52,1.52,0,0,0,8.3,9.16,1.41,1.41,0,0,0,6.89,7.59a1.44,1.44,0,0,0-1.5,1.64A1.49,1.49,0,0,0,6.89,10.75Z"/><path class="cls-3" d="M11.09,9.94a10.49,10.49,0,0,1-2.62,1.3C8.22,11.31,5.34,12,3.8,10a5.09,5.09,0,0,1-.68-4,7.17,7.17,0,0,0-.48,1,4.36,4.36,0,0,0-.16.48,5.74,5.74,0,0,0-.2.94,6.58,6.58,0,0,0,.15,2.33,7.5,7.5,0,0,0,.75,1.73c.06.1.19.32.34.55.24.39.36.59.54.83s.17.26.3.44c0,0,.11.17.22.37a8.39,8.39,0,0,1,.75,2.09,7.2,7.2,0,0,1,.1,1.84,7.92,7.92,0,0,1-.26,1.2h0a3.44,3.44,0,0,1-.34,1,21.46,21.46,0,0,1-1.13,2.4,6.61,6.61,0,0,0,2.92-2.91A9,9,0,0,0,7.34,17a26.42,26.42,0,0,1,.87,3.53c.12.72.2,2,.26,2.68,0,0,.47-3.38.53-4.89a13.21,13.21,0,0,1,1.89-6.51,7.34,7.34,0,0,1,3.7-2.61A5,5,0,0,0,11.09,9.94Z"/></svg>